<?xml version="1.0" encoding="utf-8"?>
<!-- Generator: Adobe Illustrator 17.0.0, SVG Export Plug-In . SVG Version: 6.00 Build 0)  -->
<!DOCTYPE svg PUBLIC "-//W3C//DTD SVG 1.1//EN" "http://www.w3.org/Graphics/SVG/1.1/DTD/svg11.dtd">
<svg version="1.1" id="Layer_1" xmlns="http://www.w3.org/2000/svg" xmlns:xlink="http://www.w3.org/1999/xlink" x="0px" y="0px"
	 width="65px" height="65px" viewBox="0 0 65 65" enable-background="new 0 0 65 65" xml:space="preserve">
<g>
	<g>
		<g>
			<path fill="#FFFFFF" d="M64,60c0,2.209-1.791,4-4,4H4c-2.209,0-4-1.791-4-4V4c0-2.209,1.791-4,4-4h56c2.209,0,4,1.791,4,4V60z"/>
			<path fill="none" stroke="#CCCCCC" stroke-miterlimit="10" d="M64.5,60.5c0,2.209-1.791,4-4,4h-56c-2.209,0-4-1.791-4-4v-56
				c0-2.209,1.791-4,4-4h56c2.209,0,4,1.791,4,4V60.5z"/>
		</g>
		<g enable-background="new    ">
			<path d="M15.319,59.005c-0.653,0-1.254-0.121-1.802-0.363s-1.024-0.593-1.43-1.051c-0.406-0.458-0.722-1.021-0.948-1.691
				c-0.227-0.668-0.34-1.424-0.34-2.268c0-0.832,0.116-1.58,0.348-2.243c0.231-0.664,0.553-1.228,0.964-1.691
				c0.411-0.463,0.896-0.819,1.454-1.066c0.558-0.247,1.169-0.371,1.833-0.371c0.632,0,1.188,0.129,1.667,0.387
				c0.479,0.259,0.872,0.556,1.177,0.893l-0.711,0.854c-0.274-0.295-0.585-0.531-0.933-0.711c-0.348-0.179-0.743-0.269-1.185-0.269
				c-0.495,0-0.943,0.098-1.343,0.292c-0.4,0.195-0.743,0.475-1.027,0.838c-0.285,0.363-0.503,0.804-0.656,1.319
				c-0.153,0.517-0.229,1.096-0.229,1.738c0,0.653,0.076,1.24,0.229,1.762s0.366,0.967,0.64,1.336
				c0.274,0.368,0.608,0.653,1.003,0.853c0.395,0.201,0.84,0.301,1.335,0.301c0.506,0,0.948-0.103,1.327-0.309
				c0.379-0.205,0.737-0.492,1.075-0.861l0.727,0.822c-0.411,0.474-0.875,0.843-1.391,1.106
				C16.588,58.873,15.993,59.005,15.319,59.005z"/>
			<path d="M23.284,59.005c-0.474,0-0.925-0.09-1.352-0.269c-0.426-0.179-0.803-0.439-1.13-0.782
				c-0.327-0.342-0.587-0.764-0.782-1.264c-0.195-0.501-0.292-1.067-0.292-1.699c0-0.643,0.097-1.214,0.292-1.715
				c0.195-0.5,0.456-0.924,0.782-1.271s0.704-0.611,1.13-0.79c0.427-0.18,0.877-0.27,1.352-0.27c0.474,0,0.924,0.09,1.351,0.27
				c0.426,0.179,0.803,0.442,1.13,0.79c0.326,0.348,0.587,0.771,0.782,1.271c0.195,0.501,0.292,1.072,0.292,1.715
				c0,0.632-0.097,1.198-0.292,1.699c-0.195,0.5-0.456,0.922-0.782,1.264c-0.327,0.343-0.704,0.604-1.13,0.782
				C24.208,58.915,23.757,59.005,23.284,59.005z M23.284,57.931c0.326,0,0.626-0.071,0.9-0.214c0.274-0.142,0.508-0.342,0.703-0.601
				c0.195-0.258,0.345-0.565,0.451-0.924c0.105-0.358,0.158-0.759,0.158-1.201s-0.053-0.846-0.158-1.209
				c-0.105-0.363-0.256-0.677-0.451-0.94c-0.195-0.263-0.429-0.466-0.703-0.608c-0.274-0.142-0.574-0.213-0.9-0.213
				c-0.327,0-0.627,0.071-0.901,0.213c-0.274,0.143-0.508,0.346-0.703,0.608c-0.195,0.264-0.345,0.577-0.451,0.94
				s-0.158,0.767-0.158,1.209s0.052,0.843,0.158,1.201s0.255,0.666,0.451,0.924c0.195,0.259,0.429,0.459,0.703,0.601
				C22.657,57.859,22.957,57.931,23.284,57.931z"/>
			<path d="M28.861,58.815v-7.68h1.075l0.11,1.105h0.047c0.369-0.368,0.756-0.677,1.162-0.924c0.405-0.248,0.877-0.372,1.414-0.372
				c0.811,0,1.404,0.253,1.778,0.759s0.561,1.254,0.561,2.244v4.867h-1.295v-4.693c0-0.727-0.116-1.251-0.348-1.572
				c-0.232-0.321-0.601-0.482-1.106-0.482c-0.4,0-0.753,0.101-1.059,0.301c-0.306,0.2-0.653,0.495-1.043,0.885v5.562H28.861z"/>
			<path d="M37.727,58.815v-6.621h-1.043v-0.979l1.043-0.079v-1.217c0-0.79,0.182-1.412,0.545-1.865
				c0.363-0.452,0.93-0.68,1.699-0.68c0.242,0,0.471,0.024,0.688,0.071c0.215,0.048,0.413,0.108,0.592,0.182l-0.284,0.996
				c-0.284-0.127-0.574-0.189-0.869-0.189c-0.716,0-1.074,0.495-1.074,1.485v1.217h1.628v1.059h-1.628v6.621H37.727z"/>
			<path d="M42.783,49.555c-0.253,0-0.467-0.078-0.641-0.236s-0.26-0.358-0.26-0.601c0-0.253,0.086-0.456,0.26-0.608
				s0.388-0.229,0.641-0.229s0.467,0.077,0.641,0.229s0.26,0.355,0.26,0.608c0,0.242-0.086,0.442-0.26,0.601
				S43.036,49.555,42.783,49.555z M42.119,58.815v-7.68h1.297v7.68H42.119z"/>
			<path d="M48.598,62.355c-0.473,0-0.905-0.045-1.295-0.135c-0.391-0.09-0.725-0.224-1.004-0.402
				c-0.279-0.18-0.495-0.396-0.647-0.648c-0.153-0.253-0.229-0.548-0.229-0.885c0-0.327,0.1-0.638,0.301-0.933
				c0.199-0.295,0.474-0.563,0.821-0.806v-0.063c-0.189-0.115-0.351-0.276-0.481-0.481c-0.133-0.206-0.197-0.461-0.197-0.767
				c0-0.326,0.089-0.611,0.268-0.854c0.18-0.242,0.369-0.432,0.569-0.569V55.75c-0.253-0.211-0.481-0.492-0.688-0.846
				c-0.206-0.353-0.308-0.761-0.308-1.225c0-0.421,0.076-0.801,0.229-1.138s0.361-0.624,0.625-0.861
				c0.263-0.237,0.57-0.419,0.924-0.545c0.353-0.127,0.725-0.19,1.113-0.19c0.211,0,0.408,0.019,0.594,0.056
				c0.184,0.037,0.35,0.082,0.498,0.135h2.67v0.995h-1.58c0.179,0.18,0.329,0.406,0.45,0.68c0.121,0.274,0.182,0.574,0.182,0.9
				c0,0.411-0.073,0.782-0.222,1.114c-0.146,0.332-0.348,0.611-0.6,0.838c-0.254,0.227-0.551,0.402-0.893,0.529
				c-0.344,0.126-0.709,0.189-1.1,0.189c-0.189,0-0.384-0.023-0.584-0.071c-0.2-0.047-0.39-0.113-0.568-0.197
				c-0.138,0.116-0.254,0.245-0.348,0.387c-0.096,0.143-0.143,0.319-0.143,0.529c0,0.243,0.095,0.443,0.284,0.601
				c0.19,0.158,0.548,0.237,1.075,0.237h1.484c0.896,0,1.567,0.146,2.016,0.435c0.447,0.29,0.672,0.756,0.672,1.398
				c0,0.358-0.09,0.698-0.27,1.02c-0.179,0.321-0.438,0.603-0.773,0.846c-0.338,0.242-0.746,0.435-1.225,0.576
				C49.738,62.284,49.199,62.355,48.598,62.355z M48.788,61.454c0.368,0,0.703-0.045,1.003-0.134
				c0.301-0.09,0.557-0.206,0.768-0.348c0.21-0.143,0.373-0.309,0.489-0.498s0.174-0.385,0.174-0.585
				c0-0.358-0.132-0.605-0.396-0.742c-0.264-0.138-0.647-0.206-1.153-0.206h-1.327c-0.148,0-0.309-0.008-0.482-0.023
				s-0.345-0.05-0.514-0.103c-0.273,0.2-0.474,0.411-0.6,0.632c-0.127,0.222-0.189,0.442-0.189,0.664
				c0,0.411,0.197,0.737,0.592,0.979S48.093,61.454,48.788,61.454z M48.598,55.513c0.223,0,0.43-0.042,0.625-0.126
				c0.195-0.085,0.369-0.206,0.521-0.364c0.152-0.157,0.271-0.35,0.355-0.576s0.127-0.482,0.127-0.767
				c0-0.569-0.158-1.009-0.475-1.319s-0.701-0.467-1.154-0.467c-0.452,0-0.837,0.156-1.152,0.467
				c-0.316,0.311-0.475,0.75-0.475,1.319c0,0.284,0.042,0.54,0.127,0.767c0.084,0.227,0.202,0.419,0.355,0.576
				c0.152,0.158,0.326,0.279,0.521,0.364C48.169,55.471,48.377,55.513,48.598,55.513z"/>
		</g>
	</g>
</g>
<g>
	<path fill="#E3A037" d="M46.516,8.768c0,0,3.195-0.574,5.94,0.451c0,0,2.294,1.434,3.318,0.655c0,0-1.147,1.393-4.22,1.065
		s-3.769-1.352-5.039-2.007"/>
	<path fill="#EF524F" d="M61.618,4.39c0,0-1.149,3.036-3.438,4.865c0,0-2.409,1.232-2.267,2.51c0,0-0.606-1.7,1.254-4.167
		c1.86-2.468,3.096-2.539,4.311-3.292"/>
	<path fill="#7A89AF" d="M58.131,19.453c0,0-2.267-2.324-2.958-5.171c0,0-0.099-2.704-1.318-3.115c0,0,1.796,0.169,3.248,2.897
		s0.994,3.879,1.163,5.298"/>
</g>
<g>
	<path fill="#9D9D9D" d="M45.637,32.588c-1.2-1.098-2.334-2.126-3.456-3.167c-0.651-0.604-1.272-1.24-1.927-1.839
		c-0.239-0.219-0.268-0.399-0.147-0.7c2.277-5.705-0.594-12.126-6.328-14.179c-6.412-2.296-13.286,1.786-14.337,8.513
		c-0.908,5.812,3.117,11.34,8.919,12.273c2.466,0.397,4.78-0.035,7.152-1.282c1.744,1.776,3.526,3.589,5.348,5.444
		c-0.179,0.104-0.258,0.156-0.342,0.197c-1.788,0.868-3.577,1.736-5.366,2.602c-0.869,0.421-1.389,0.237-1.808-0.629
		c-0.349-0.721-0.709-1.437-1.045-2.163c-0.1-0.216-0.216-0.288-0.458-0.267c-0.598,0.052-1.201,0.052-1.798,0.114
		c-0.136,0.014-0.318,0.173-0.369,0.306c-0.287,0.762-0.539,1.537-0.807,2.307c-0.295,0.846-0.827,1.106-1.671,0.814
		c-2.013-0.695-4.025-1.392-6.037-2.091c-0.792-0.275-1.061-0.82-0.794-1.608c0.266-0.785,0.529-1.572,0.817-2.349
		c0.089-0.242,0.06-0.38-0.145-0.545c-0.445-0.359-0.878-0.738-1.285-1.139c-0.192-0.189-0.338-0.192-0.56-0.079
		c-0.74,0.375-1.487,0.736-2.235,1.094c-0.741,0.355-1.305,0.16-1.664-0.578c-0.945-1.942-1.887-3.885-2.825-5.831
		c-0.366-0.759-0.165-1.323,0.594-1.694c0.745-0.365,1.491-0.727,2.244-1.077c0.214-0.1,0.289-0.224,0.268-0.464
		c-0.051-0.57-0.087-1.142-0.097-1.713c-0.004-0.258-0.09-0.381-0.336-0.461c-0.802-0.262-1.597-0.542-2.392-0.824
		c-0.739-0.262-1.011-0.821-0.755-1.561c0.709-2.053,1.421-4.106,2.138-6.156c0.266-0.761,0.823-1.02,1.598-0.756
		c0.784,0.268,1.57,0.534,2.347,0.82c0.242,0.089,0.38,0.045,0.544-0.157c0.36-0.445,0.743-0.873,1.141-1.283
		c0.17-0.175,0.194-0.306,0.086-0.52c-0.379-0.754-0.747-1.513-1.106-2.277c-0.349-0.743-0.149-1.3,0.589-1.659
		c1.942-0.945,3.884-1.888,5.829-2.828c0.735-0.355,1.303-0.155,1.664,0.579c0.366,0.744,0.736,1.487,1.085,2.24
		c0.108,0.232,0.237,0.308,0.492,0.285c0.584-0.052,1.172-0.051,1.755-0.111c0.138-0.014,0.326-0.161,0.376-0.291
		c0.301-0.787,0.565-1.589,0.847-2.383c0.274-0.772,0.808-1.035,1.582-0.769c2.041,0.702,4.081,1.407,6.119,2.117
		c0.792,0.276,1.045,0.817,0.768,1.624c-0.269,0.784-0.54,1.568-0.823,2.347c-0.079,0.218-0.054,0.35,0.14,0.507
		c0.456,0.368,0.895,0.76,1.316,1.168c0.18,0.175,0.319,0.174,0.525,0.071c0.741-0.372,1.487-0.736,2.236-1.092
		c0.773-0.368,1.321-0.177,1.694,0.59c0.946,1.942,1.888,3.884,2.826,5.83c0.347,0.719,0.156,1.284-0.555,1.64
		c-0.754,0.378-1.515,0.743-2.278,1.103c-0.222,0.104-0.311,0.215-0.274,0.49c0.072,0.538,0.1,1.084,0.102,1.627
		c0.001,0.303,0.079,0.459,0.384,0.555c0.777,0.243,1.543,0.522,2.313,0.79c0.744,0.259,1.024,0.81,0.768,1.554
		c-0.712,2.068-1.428,4.134-2.157,6.195C45.982,32.101,45.805,32.309,45.637,32.588z"/>
	<path fill="#9D9D9D" d="M48.09,45.014c-2.124-0.055-4.499-1.758-4.919-3.715c-0.138-0.644,0.002-1.355,0.06-2.032
		c0.026-0.306,0.004-0.541-0.221-0.777c-3.958-4.165-8.039-8.202-12.425-11.922c-0.282-0.239-0.521-0.305-0.886-0.183
		c-1.774,0.595-3.702-0.225-4.751-1.992c-0.484-0.816-0.747-1.705-0.758-2.65c-0.003-0.239,0.146-0.508,0.302-0.7
		c0.044-0.054,0.381,0.086,0.553,0.188c0.688,0.411,1.361,0.847,2.044,1.266c0.592,0.363,1.149,0.336,1.654-0.135
		c0.576-0.538,1.014-1.17,1.03-2.004c0.01-0.544-0.221-0.961-0.686-1.253c-0.654-0.412-1.303-0.832-1.952-1.251
		c-0.458-0.296-0.448-0.674,0.06-0.903c1.263-0.57,2.579-0.739,3.863-0.145c0.717,0.331,1.401,0.789,2.003,1.303
		c1.245,1.064,1.359,2.478,1.02,3.974c-0.079,0.347-0.05,0.616,0.215,0.894c3.878,4.083,7.882,8.034,12.162,11.7
		c0.426,0.365,0.782,0.5,1.366,0.329c1.548-0.453,3.487,0.335,4.348,1.796c0.42,0.713,0.681,1.538,0.897,2.344
		c0.094,0.349-0.074,0.786-0.184,1.165c-0.082,0.285-0.294,0.128-0.448,0.032c-0.718-0.444-1.432-0.895-2.15-1.339
		c-0.769-0.476-1.386-0.395-1.976,0.29c-0.445,0.515-0.812,1.079-0.804,1.8c0.006,0.539,0.222,0.957,0.696,1.248
		c0.658,0.405,1.306,0.826,1.947,1.258c0.139,0.093,0.345,0.3,0.316,0.384c-0.067,0.196-0.228,0.443-0.406,0.502
		C49.417,44.698,48.749,44.843,48.09,45.014z"/>
</g>
</svg>
