<?xml version="1.0" encoding="utf-8"?>
<!-- Generator: Adobe Illustrator 17.0.0, SVG Export Plug-In . SVG Version: 6.00 Build 0)  -->
<!DOCTYPE svg PUBLIC "-//W3C//DTD SVG 1.1//EN" "http://www.w3.org/Graphics/SVG/1.1/DTD/svg11.dtd">
<svg version="1.1" id="Layer_1" xmlns="http://www.w3.org/2000/svg" xmlns:xlink="http://www.w3.org/1999/xlink" x="0px" y="0px"
	 width="65px" height="65px" viewBox="0 0 65 65" enable-background="new 0 0 65 65" xml:space="preserve">
<g>
	<g>
		<g>
			<path fill="#FFFFFF" d="M64,60c0,2.209-1.791,4-4,4H4c-2.209,0-4-1.791-4-4V4c0-2.209,1.791-4,4-4h56c2.209,0,4,1.791,4,4V60z"/>
			<path fill="none" stroke="#CCCCCC" stroke-miterlimit="10" d="M64.5,60.5c0,2.209-1.791,4-4,4h-56c-2.209,0-4-1.791-4-4v-56
				c0-2.209,1.791-4,4-4h56c2.209,0,4,1.791,4,4V60.5z"/>
		</g>
		<text transform="matrix(1 0 0 1 5.9775 56.1485)" font-family="'MyriadPro-Regular'" font-size="11">User Mgmt</text>
	</g>
</g>
<g>
	<path fill="#E3A037" d="M46.516,7.768c0,0,3.195-0.574,5.94,0.451c0,0,2.294,1.434,3.318,0.655c0,0-1.147,1.393-4.22,1.065
		s-3.769-1.352-5.039-2.007"/>
	<path fill="#EF524F" d="M61.618,3.39c0,0-1.149,3.036-3.438,4.865c0,0-2.409,1.232-2.267,2.51c0,0-0.606-1.7,1.254-4.167
		c1.86-2.468,3.096-2.539,4.311-3.292"/>
	<path fill="#7A89AF" d="M58.131,18.453c0,0-2.267-2.324-2.958-5.171c0,0-0.099-2.704-1.318-3.115c0,0,1.796,0.169,3.248,2.897
		s0.994,3.879,1.163,5.298"/>
</g>
<g>
	<g>
		<path fill="#9E9E9E" d="M33.653,33.693c-2.956,0.074-5.916,0.009-8.783-0.813c-1.798-0.515-1.735-0.275-1.343-2.294
			c0.434-2.236,1.63-3.906,3.847-4.731c0.805-0.3,1.592-0.651,2.38-0.994c0.273-0.119,0.437-0.084,0.646,0.155
			c1.993,2.264,4.523,2.268,6.499,0.012c0.202-0.231,0.363-0.292,0.644-0.169c0.859,0.377,1.72,0.75,2.592,1.093
			c2.297,0.9,3.327,2.746,3.718,5.03c0.262,1.531,0.324,1.449-1.137,1.799c-1.76,0.421-3.566,0.692-5.368,0.888
			C36.13,33.801,34.885,33.693,33.653,33.693z"/>
		<path fill="#9E9E9E" d="M38.026,17.99c0.148,0.419,0.311,0.833,0.442,1.257c0.257,0.835,0.092,1.638-0.298,2.382
			c-0.467,0.894-0.957,1.781-1.504,2.629c-0.757,1.175-1.819,1.925-3.275,1.79c-1.535-0.142-2.474-1.129-3.129-2.45
			c-0.232-0.466-0.494-0.92-0.78-1.354c-0.51-0.774-0.83-1.594-0.742-2.537c0.014-0.154,0.007-0.35,0.096-0.45
			c0.487-0.547,0.365-1.206,0.361-1.836c-0.019-3.198,2.529-4.462,5.016-4.198c0.648,0.069,1.288,0.311,1.904,0.547
			c0.618,0.236,1.008,0.722,1.16,1.381c0.026,0.112,0.056,0.23,0.116,0.327C38.041,16.532,38.125,16.793,38.026,17.99z"/>
		<path fill="#9E9E9E" d="M33.812,34.521c0.288,0.026,0.558,0.051,0.862,0.078c-0.304,0.797-0.594,1.56-0.887,2.322
			c-0.501,1.307-0.999,2.615-1.509,3.919c-0.072,0.184-0.038,0.278,0.115,0.402c0.796,0.644,1.051,1.704,0.652,2.633
			c-0.375,0.873-1.331,1.462-2.218,1.364c-1.102-0.122-1.901-0.846-2.082-1.888c-0.242-1.386,0.873-2.662,2.298-2.6
			c0.292,0.012,0.407-0.07,0.507-0.337c0.706-1.881,1.433-3.755,2.153-5.631C33.737,34.696,33.775,34.611,33.812,34.521z"/>
		<path fill="#9E9E9E" d="M23.301,25.829c-0.196,0.307-0.381,0.616-0.59,0.908c-0.062,0.086-0.188,0.149-0.295,0.177
			c-1.32,0.335-2.642,0.665-3.966,0.987c-0.219,0.053-0.322,0.126-0.336,0.388c-0.057,1.054-0.986,1.962-2.03,2.026
			c-1.18,0.073-2.189-0.663-2.409-1.759c-0.226-1.12,0.35-2.184,1.398-2.587c1.035-0.397,2.176-0.002,2.747,0.973
			c0.106,0.182,0.21,0.2,0.388,0.155c1.617-0.407,3.236-0.81,4.854-1.214C23.143,25.863,23.227,25.846,23.301,25.829z"/>
		<path fill="#9E9E9E" d="M41.213,16.894c0.055-0.336,0.09-0.637,0.16-0.931c0.024-0.102,0.115-0.214,0.207-0.27
			c0.92-0.562,1.842-1.12,2.772-1.663c0.187-0.109,0.238-0.212,0.196-0.426c-0.177-0.918,0.105-1.69,0.849-2.249
			c0.745-0.56,1.578-0.621,2.4-0.191c0.835,0.438,1.252,1.178,1.197,2.118c-0.053,0.924-0.538,1.607-1.404,1.956
			c-0.865,0.35-1.664,0.178-2.371-0.426c-0.036-0.031-0.067-0.068-0.101-0.101c-0.027-0.026-0.056-0.051-0.106-0.094
			C43.749,15.374,42.483,16.132,41.213,16.894z"/>
		<path fill="#9E9E9E" d="M45.397,25.031c0.583,0.377,1.157,0.747,1.731,1.118c0.575,0.372,1.15,0.746,1.726,1.12
			c0.404-0.361,0.843-0.58,1.365-0.65c1.235-0.164,2.387,0.785,2.503,2.081c0.108,1.213-0.89,2.354-2.1,2.402
			c-1.631,0.064-2.743-1.336-2.301-2.91c0.054-0.193-0.012-0.27-0.157-0.362c-0.9-0.577-1.794-1.16-2.691-1.741
			c-0.079-0.051-0.155-0.108-0.206-0.143C45.312,25.632,45.352,25.348,45.397,25.031z"/>
		<path fill="#9E9E9E" d="M26.491,17.086c-0.555-0.41-1.107-0.816-1.657-1.224c-0.476-0.352-0.955-0.701-1.422-1.062
			c-0.158-0.122-0.265-0.134-0.442-0.009c-1.295,0.917-3.085,0.276-3.475-1.252c-0.232-0.912,0.007-1.716,0.742-2.315
			c0.741-0.604,1.583-0.698,2.439-0.27c0.834,0.418,1.248,1.128,1.231,2.065c-0.004,0.234-0.047,0.478-0.13,0.697
			c-0.08,0.21-0.013,0.303,0.145,0.418c0.818,0.596,1.626,1.205,2.443,1.802c0.154,0.112,0.226,0.21,0.174,0.419
			C26.485,16.58,26.506,16.823,26.491,17.086z"/>
	</g>
</g>
</svg>
