<?xml version="1.0" encoding="utf-8"?>
<!-- Generator: Adobe Illustrator 17.0.0, SVG Export Plug-In . SVG Version: 6.00 Build 0)  -->
<!DOCTYPE svg PUBLIC "-//W3C//DTD SVG 1.1//EN" "http://www.w3.org/Graphics/SVG/1.1/DTD/svg11.dtd">
<svg version="1.1" id="Layer_1" xmlns="http://www.w3.org/2000/svg" xmlns:xlink="http://www.w3.org/1999/xlink" x="0px" y="0px"
	 width="105px" height="25px" viewBox="0 0 105 25" enable-background="new 0 0 105 25" xml:space="preserve">
<g>
	<g enable-background="new    ">
		<path fill="#FFFFFF" d="M17.684,6.314h4.932c0.876,0,1.669,0.176,2.378,0.528c0.708,0.352,1.313,0.829,1.814,1.433
			c0.501,0.603,0.884,1.306,1.151,2.107c0.266,0.803,0.399,1.658,0.399,2.566c0,0.947-0.141,1.828-0.423,2.642
			c-0.282,0.814-0.675,1.521-1.18,2.12c-0.505,0.599-1.109,1.068-1.814,1.409s-1.48,0.511-2.325,0.511h-4.932V6.314z M19.082,18.339
			h2.971c0.705,0,1.353-0.121,1.944-0.364c0.591-0.242,1.104-0.593,1.538-1.051s0.773-1.02,1.016-1.685
			c0.242-0.666,0.364-1.421,0.364-2.267c0-0.924-0.123-1.723-0.37-2.396c-0.247-0.674-0.587-1.231-1.022-1.674
			s-0.947-0.77-1.538-0.98c-0.591-0.211-1.235-0.317-1.932-0.317h-2.971V18.339z"/>
		<path fill="#FFFFFF" d="M33.76,17.869l2.689-7.797h1.479l-4.11,11.673c-0.133,0.375-0.288,0.694-0.464,0.957
			c-0.176,0.262-0.362,0.474-0.558,0.634s-0.396,0.277-0.599,0.353c-0.204,0.074-0.399,0.111-0.587,0.111
			c-0.172,0-0.34-0.012-0.505-0.035s-0.341-0.066-0.528-0.129v-1.233c0.094,0.039,0.219,0.08,0.375,0.123s0.313,0.064,0.47,0.064
			c0.165,0,0.315-0.059,0.452-0.176s0.268-0.294,0.394-0.528c0.125-0.235,0.252-0.53,0.381-0.887
			c0.129-0.356,0.272-0.773,0.429-1.251l-3.582-9.676h1.55L33.76,17.869z"/>
		<path fill="#FFFFFF" d="M39.186,10.072h1.421v1.444c0.494-0.571,1.028-0.984,1.603-1.239c0.576-0.254,1.165-0.382,1.768-0.382
			c0.908,0,1.613,0.255,2.114,0.764s0.751,1.209,0.751,2.102v6.87h-1.397v-6.693c0-0.658-0.155-1.12-0.464-1.386
			c-0.309-0.267-0.734-0.399-1.274-0.399c-0.431,0-0.834,0.076-1.209,0.229c-0.376,0.153-0.705,0.354-0.987,0.605
			c-0.282,0.25-0.503,0.54-0.664,0.869c-0.16,0.328-0.241,0.669-0.241,1.021v5.754h-1.421V10.072z"/>
		<path fill="#FFFFFF" d="M57.012,19.748c-0.086,0.031-0.17,0.051-0.252,0.059s-0.17,0.012-0.265,0.012
			c-0.399,0-0.731-0.148-0.998-0.446c-0.267-0.297-0.419-0.763-0.458-1.397c-0.305,0.399-0.605,0.719-0.898,0.958
			c-0.293,0.238-0.587,0.424-0.881,0.558c-0.293,0.133-0.589,0.221-0.886,0.264c-0.298,0.043-0.599,0.064-0.904,0.064
			c-0.392,0-0.76-0.062-1.104-0.188c-0.345-0.125-0.644-0.306-0.898-0.54c-0.254-0.235-0.454-0.519-0.599-0.852
			c-0.145-0.333-0.217-0.702-0.217-1.109s0.09-0.756,0.27-1.046c0.18-0.289,0.417-0.538,0.71-0.745s0.626-0.384,0.998-0.528
			c0.372-0.146,0.753-0.274,1.145-0.388s0.773-0.219,1.145-0.317c0.372-0.098,0.705-0.209,0.999-0.335
			c0.293-0.125,0.529-0.27,0.71-0.434c0.181-0.165,0.271-0.368,0.271-0.611c0-0.563-0.2-0.967-0.6-1.209
			c-0.398-0.243-0.967-0.364-1.703-0.364c-0.282,0-0.55,0.027-0.804,0.082s-0.479,0.141-0.675,0.259
			c-0.196,0.117-0.358,0.27-0.487,0.458c-0.129,0.188-0.213,0.415-0.252,0.681h-1.479c0.031-0.47,0.162-0.877,0.393-1.222
			c0.231-0.344,0.523-0.628,0.875-0.851c0.353-0.224,0.744-0.39,1.174-0.499c0.431-0.11,0.861-0.165,1.292-0.165
			c0.47,0,0.928,0.051,1.374,0.153c0.445,0.102,0.84,0.266,1.18,0.493c0.341,0.227,0.615,0.521,0.822,0.88
			c0.207,0.36,0.311,0.795,0.311,1.304v5.038c0,0.102,0.018,0.202,0.054,0.3c0.035,0.098,0.086,0.186,0.152,0.264
			s0.142,0.142,0.224,0.188s0.17,0.07,0.264,0.07V19.748z M54.898,14.229c-0.196,0.204-0.453,0.374-0.77,0.512
			c-0.316,0.137-0.654,0.26-1.01,0.369c-0.356,0.11-0.718,0.216-1.086,0.317s-0.699,0.223-0.992,0.364
			c-0.293,0.141-0.533,0.311-0.716,0.511c-0.184,0.199-0.276,0.452-0.276,0.758c0,0.273,0.047,0.507,0.141,0.698
			c0.094,0.192,0.219,0.351,0.376,0.476c0.156,0.125,0.333,0.216,0.528,0.271s0.395,0.082,0.599,0.082
			c0.587,0,1.163-0.178,1.726-0.534c0.564-0.356,1.058-0.902,1.48-1.639V14.229z"/>
		<path fill="#FFFFFF" d="M58.715,10.072h1.408v1.503c0.204-0.298,0.43-0.552,0.676-0.764c0.246-0.211,0.501-0.386,0.764-0.522
			c0.262-0.137,0.526-0.236,0.793-0.3c0.266-0.062,0.52-0.094,0.763-0.094c0.485,0,0.941,0.129,1.368,0.388s0.816,0.713,1.168,1.362
			c0.188-0.313,0.404-0.581,0.646-0.805c0.242-0.223,0.501-0.405,0.775-0.546c0.273-0.141,0.553-0.244,0.84-0.312
			c0.285-0.066,0.564-0.1,0.839-0.1c0.438,0,0.842,0.074,1.21,0.224c0.367,0.148,0.685,0.352,0.951,0.61
			c0.266,0.258,0.473,0.563,0.622,0.916s0.224,0.736,0.224,1.15v6.847h-1.41v-6.447c0-0.399-0.057-0.729-0.17-0.992
			c-0.113-0.262-0.258-0.47-0.434-0.622c-0.177-0.153-0.379-0.261-0.605-0.323s-0.45-0.094-0.67-0.094
			c-0.297,0-0.592,0.066-0.887,0.199c-0.293,0.134-0.561,0.315-0.804,0.546c-0.243,0.231-0.438,0.504-0.587,0.816
			c-0.148,0.313-0.224,0.654-0.224,1.021v5.896h-1.397v-6.447c0-0.399-0.059-0.729-0.176-0.992c-0.117-0.262-0.264-0.47-0.44-0.622
			c-0.177-0.153-0.37-0.261-0.581-0.323c-0.212-0.062-0.411-0.094-0.6-0.094c-0.375,0-0.724,0.086-1.045,0.258
			c-0.32,0.173-0.601,0.392-0.84,0.658c-0.238,0.266-0.426,0.556-0.563,0.869c-0.137,0.312-0.206,0.614-0.206,0.904v5.789h-1.408
			V10.072z"/>
		<path fill="#FFFFFF" d="M73.57,14.863c0-0.682,0.094-1.323,0.281-1.926c0.188-0.604,0.466-1.13,0.834-1.58
			c0.367-0.45,0.82-0.806,1.355-1.068c0.537-0.262,1.153-0.394,1.85-0.394c0.697,0,1.317,0.132,1.861,0.394
			c0.545,0.263,1.002,0.618,1.375,1.068c0.371,0.45,0.652,0.977,0.846,1.58c0.191,0.603,0.287,1.244,0.287,1.926
			c0,0.681-0.096,1.321-0.287,1.92c-0.193,0.599-0.475,1.121-0.846,1.567c-0.373,0.446-0.83,0.799-1.375,1.058
			c-0.544,0.258-1.164,0.387-1.861,0.387c-0.696,0-1.312-0.129-1.85-0.387c-0.535-0.259-0.988-0.611-1.355-1.058
			c-0.368-0.446-0.646-0.969-0.834-1.567S73.57,15.544,73.57,14.863z M74.967,14.863c0,0.509,0.066,0.986,0.199,1.433
			c0.134,0.446,0.328,0.838,0.582,1.174c0.254,0.337,0.562,0.602,0.922,0.793c0.359,0.192,0.768,0.288,1.221,0.288
			c0.455,0,0.863-0.096,1.228-0.288c0.364-0.191,0.673-0.456,0.928-0.793c0.255-0.336,0.45-0.728,0.587-1.174
			s0.206-0.924,0.206-1.433s-0.069-0.988-0.206-1.438s-0.332-0.844-0.587-1.181c-0.255-0.336-0.563-0.603-0.928-0.798
			c-0.364-0.196-0.772-0.294-1.228-0.294c-0.453,0-0.861,0.098-1.221,0.294c-0.36,0.195-0.668,0.462-0.922,0.798
			c-0.254,0.337-0.448,0.73-0.582,1.181C75.033,13.875,74.967,14.354,74.967,14.863z"/>
	</g>
	<g>
		<path fill="#E3A037" d="M73.302,5.454c0,0,3.67-0.659,6.823,0.518c0,0,2.635,1.647,3.811,0.753c0,0-1.317,1.6-4.846,1.223
			c-3.529-0.376-4.329-1.553-5.787-2.306"/>
		<path fill="#EF524F" d="M90.647,0.426c0,0-1.32,3.487-3.949,5.588c0,0-2.766,1.415-2.604,2.883c0,0-0.696-1.952,1.44-4.786
			s3.556-2.916,4.951-3.781"/>
		<path fill="#7A89AF" d="M86.643,17.726c0,0-2.603-2.669-3.397-5.939c0,0-0.114-3.105-1.514-3.578c0,0,2.063,0.194,3.73,3.327
			s1.142,4.455,1.336,6.085"/>
	</g>
</g>
</svg>
