<?xml version="1.0" encoding="utf-8"?>
<!-- Generator: Adobe Illustrator 17.0.0, SVG Export Plug-In . SVG Version: 6.00 Build 0)  -->
<!DOCTYPE svg PUBLIC "-//W3C//DTD SVG 1.1//EN" "http://www.w3.org/Graphics/SVG/1.1/DTD/svg11.dtd">
<svg version="1.1" id="Layer_1" xmlns="http://www.w3.org/2000/svg" xmlns:xlink="http://www.w3.org/1999/xlink" x="0px" y="0px"
	 width="105px" height="25px" viewBox="0 0 105 25" enable-background="new 0 0 105 25" xml:space="preserve">
<g>
	<g>
		<path d="M15.499,6.458h5.096c0.906,0,1.725,0.182,2.457,0.546c0.732,0.364,1.357,0.857,1.875,1.48
			c0.518,0.623,0.914,1.349,1.189,2.178s0.413,1.713,0.413,2.651c0,0.979-0.146,1.889-0.437,2.729
			c-0.291,0.842-0.697,1.571-1.219,2.19c-0.521,0.618-1.146,1.104-1.875,1.456c-0.728,0.352-1.528,0.527-2.402,0.527h-5.096V6.458z
			 M16.943,18.881h3.069c0.728,0,1.397-0.125,2.008-0.376c0.611-0.25,1.141-0.612,1.589-1.086c0.449-0.473,0.799-1.053,1.049-1.74
			c0.251-0.688,0.376-1.469,0.376-2.342c0-0.955-0.127-1.779-0.382-2.475c-0.255-0.695-0.606-1.272-1.056-1.729
			c-0.449-0.457-0.979-0.794-1.589-1.013c-0.611-0.219-1.276-0.328-1.996-0.328h-3.069V18.881z"/>
		<path d="M32.108,18.396l2.778-8.055h1.529l-4.246,12.059c-0.138,0.389-0.297,0.718-0.479,0.989
			c-0.182,0.271-0.374,0.489-0.576,0.655c-0.202,0.165-0.409,0.286-0.619,0.363c-0.21,0.077-0.413,0.115-0.607,0.115
			c-0.178,0-0.352-0.012-0.521-0.036s-0.352-0.068-0.546-0.134v-1.273c0.097,0.04,0.226,0.083,0.388,0.127
			c0.162,0.045,0.323,0.067,0.485,0.067c0.17,0,0.325-0.061,0.467-0.183c0.142-0.121,0.277-0.303,0.407-0.546
			c0.129-0.242,0.261-0.548,0.394-0.916c0.134-0.368,0.281-0.799,0.443-1.292l-3.7-9.997h1.602L32.108,18.396z"/>
		<path d="M37.713,10.34h1.468v1.492c0.51-0.59,1.062-1.017,1.656-1.28c0.594-0.263,1.203-0.394,1.826-0.394
			c0.938,0,1.666,0.263,2.184,0.789c0.517,0.526,0.776,1.25,0.776,2.172v7.097h-1.444v-6.915c0-0.68-0.16-1.157-0.479-1.432
			c-0.32-0.275-0.758-0.412-1.316-0.412c-0.445,0-0.861,0.079-1.25,0.236c-0.388,0.158-0.728,0.366-1.019,0.625
			c-0.291,0.259-0.52,0.558-0.685,0.897c-0.166,0.341-0.249,0.692-0.249,1.057v5.944h-1.468V10.34z"/>
		<path d="M56.129,20.337c-0.088,0.032-0.176,0.053-0.26,0.061c-0.086,0.009-0.176,0.013-0.273,0.013
			c-0.412,0-0.756-0.154-1.031-0.461c-0.275-0.308-0.434-0.789-0.473-1.444c-0.316,0.413-0.625,0.742-0.929,0.989
			c-0.303,0.247-0.606,0.438-0.91,0.576c-0.303,0.138-0.608,0.229-0.916,0.272c-0.307,0.045-0.619,0.067-0.934,0.067
			c-0.404,0-0.785-0.065-1.14-0.194c-0.356-0.129-0.666-0.315-0.928-0.558c-0.263-0.243-0.469-0.536-0.619-0.88
			c-0.15-0.344-0.225-0.726-0.225-1.146s0.093-0.78,0.279-1.08c0.186-0.299,0.431-0.556,0.734-0.771
			c0.303-0.214,0.647-0.396,1.031-0.546c0.384-0.149,0.778-0.283,1.183-0.4s0.799-0.227,1.183-0.327
			c0.384-0.102,0.728-0.217,1.031-0.346c0.304-0.13,0.548-0.279,0.733-0.449s0.279-0.38,0.279-0.631c0-0.583-0.205-0.999-0.619-1.25
			c-0.412-0.25-0.999-0.376-1.758-0.376c-0.292,0-0.568,0.028-0.831,0.085c-0.263,0.057-0.496,0.146-0.698,0.267
			c-0.202,0.122-0.37,0.279-0.503,0.473c-0.134,0.194-0.221,0.429-0.261,0.704h-1.528c0.032-0.485,0.167-0.906,0.406-1.262
			s0.54-0.649,0.904-0.879c0.364-0.23,0.769-0.402,1.213-0.516s0.89-0.17,1.334-0.17c0.485,0,0.958,0.053,1.419,0.158
			s0.867,0.275,1.219,0.51c0.352,0.234,0.635,0.538,0.85,0.91s0.322,0.821,0.322,1.347v5.205c0,0.104,0.018,0.208,0.055,0.309
			c0.035,0.102,0.088,0.192,0.156,0.273c0.07,0.081,0.146,0.146,0.23,0.194c0.086,0.048,0.178,0.072,0.273,0.072V20.337z
			 M53.945,14.635c-0.201,0.211-0.467,0.387-0.795,0.528c-0.327,0.142-0.675,0.269-1.043,0.382s-0.742,0.223-1.122,0.327
			c-0.38,0.105-0.722,0.23-1.025,0.377c-0.303,0.146-0.55,0.321-0.74,0.527c-0.19,0.206-0.285,0.467-0.285,0.782
			c0,0.283,0.048,0.524,0.146,0.722c0.097,0.199,0.226,0.362,0.388,0.492c0.162,0.129,0.344,0.223,0.546,0.278
			c0.202,0.057,0.408,0.085,0.619,0.085c0.607,0,1.201-0.184,1.784-0.552c0.582-0.368,1.092-0.932,1.528-1.692V14.635z"/>
		<path d="M57.889,10.34h1.456v1.553c0.21-0.307,0.442-0.57,0.697-0.789s0.518-0.398,0.789-0.54
			c0.271-0.141,0.543-0.244,0.818-0.309s0.538-0.097,0.789-0.097c0.501,0,0.972,0.133,1.413,0.4c0.44,0.267,0.843,0.736,1.207,1.407
			c0.194-0.323,0.417-0.601,0.667-0.831c0.251-0.23,0.518-0.418,0.801-0.564s0.572-0.253,0.868-0.322
			c0.295-0.068,0.584-0.103,0.867-0.103c0.453,0,0.869,0.077,1.249,0.23c0.381,0.154,0.708,0.364,0.983,0.631
			c0.274,0.267,0.489,0.583,0.643,0.946c0.153,0.364,0.23,0.76,0.23,1.189v7.073h-1.456v-6.66c0-0.413-0.059-0.754-0.176-1.025
			s-0.267-0.485-0.448-0.643c-0.183-0.158-0.391-0.269-0.625-0.334c-0.234-0.064-0.466-0.097-0.691-0.097
			c-0.308,0-0.613,0.069-0.916,0.206c-0.304,0.138-0.581,0.326-0.831,0.564c-0.251,0.239-0.453,0.52-0.606,0.844
			c-0.154,0.323-0.23,0.675-0.23,1.055v6.091h-1.444v-6.66c0-0.413-0.061-0.754-0.182-1.025s-0.273-0.485-0.455-0.643
			s-0.382-0.269-0.601-0.334c-0.219-0.064-0.425-0.097-0.619-0.097c-0.388,0-0.748,0.089-1.079,0.267
			c-0.332,0.178-0.621,0.405-0.868,0.68c-0.246,0.275-0.44,0.574-0.582,0.898c-0.142,0.323-0.212,0.635-0.212,0.934v5.981h-1.456
			V10.34z"/>
		<path d="M73.235,15.29c0-0.703,0.098-1.366,0.292-1.989c0.193-0.623,0.48-1.167,0.861-1.632c0.38-0.465,0.847-0.833,1.401-1.104
			c0.554-0.271,1.19-0.406,1.91-0.406s1.361,0.136,1.923,0.406c0.562,0.271,1.035,0.639,1.42,1.104
			c0.384,0.465,0.675,1.009,0.873,1.632s0.298,1.286,0.298,1.989c0,0.704-0.1,1.365-0.298,1.983
			c-0.198,0.619-0.489,1.159-0.873,1.62c-0.385,0.461-0.857,0.825-1.42,1.092c-0.562,0.267-1.203,0.4-1.923,0.4
			s-1.356-0.134-1.91-0.4c-0.555-0.267-1.021-0.631-1.401-1.092c-0.381-0.461-0.668-1.001-0.861-1.62
			C73.333,16.655,73.235,15.994,73.235,15.29z M74.68,15.29c0,0.526,0.068,1.02,0.206,1.48s0.338,0.865,0.601,1.213
			s0.58,0.621,0.952,0.819S77.231,19.1,77.7,19.1c0.47,0,0.892-0.099,1.269-0.297c0.376-0.198,0.695-0.472,0.958-0.819
			s0.465-0.752,0.606-1.213s0.213-0.954,0.213-1.48c0-0.525-0.071-1.021-0.213-1.486c-0.142-0.465-0.344-0.871-0.606-1.219
			c-0.263-0.348-0.582-0.623-0.958-0.825c-0.377-0.202-0.799-0.303-1.269-0.303c-0.469,0-0.89,0.101-1.262,0.303
			s-0.689,0.477-0.952,0.825c-0.263,0.348-0.463,0.754-0.601,1.219C74.748,14.27,74.68,14.765,74.68,15.29z"/>
	</g>
	<g>
		<path fill="#E4A137" d="M72.959,5.57c0,0,3.792-0.681,7.049,0.535c0,0,2.722,1.701,3.937,0.778c0,0-1.361,1.653-5.007,1.264
			c-3.646-0.389-4.472-1.604-5.979-2.382"/>
		<path fill="#EF5451" d="M90.878,0.375c0,0-1.364,3.603-4.08,5.773c0,0-2.858,1.462-2.69,2.979c0,0-0.719-2.017,1.488-4.945
			s3.674-3.013,5.115-3.906"/>
		<path fill="#7B8AB0" d="M86.741,18.249c0,0-2.69-2.758-3.51-6.136c0,0-0.118-3.208-1.564-3.696c0,0,2.132,0.2,3.854,3.437
			c1.722,3.237,1.179,4.602,1.38,6.286"/>
	</g>
</g>
</svg>
