<?xml version="1.0" encoding="utf-8"?>
<!-- Generator: Adobe Illustrator 17.0.0, SVG Export Plug-In . SVG Version: 6.00 Build 0)  -->
<!DOCTYPE svg PUBLIC "-//W3C//DTD SVG 1.1//EN" "http://www.w3.org/Graphics/SVG/1.1/DTD/svg11.dtd">
<svg version="1.1" id="Layer_1" xmlns="http://www.w3.org/2000/svg" xmlns:xlink="http://www.w3.org/1999/xlink" x="0px" y="0px"
	 width="65px" height="65px" viewBox="0 0 65 65" enable-background="new 0 0 65 65" xml:space="preserve">
<g>
	<g>
		<g>
			<path fill="#FFFFFF" d="M64,60c0,2.209-1.791,4-4,4H4c-2.209,0-4-1.791-4-4V4c0-2.209,1.791-4,4-4h56c2.209,0,4,1.791,4,4V60z"/>
			<path fill="none" stroke="#CCCCCC" stroke-miterlimit="10" d="M64.5,60.5c0,2.209-1.791,4-4,4h-56c-2.209,0-4-1.791-4-4v-56
				c0-2.209,1.791-4,4-4h56c2.209,0,4,1.791,4,4V60.5z"/>
		</g>
		<text transform="matrix(1 0 0 1 13.9775 57.8152)" font-family="'MyriadPro-Regular'" font-size="15.8025">Audit</text>
	</g>
	<g>
		<path fill="#9D9D9D" d="M15.169,38.492c0-8.329,0-16.658,0-24.987c0.639-2.094,1.897-2.803,4.201-2.798
			c8.92,0.018,17.841,0.007,26.761,0.008c2.675,0,3.957,1.294,3.957,3.989c0,7.55,0,15.1,0,22.65c0,2.643-1.291,3.928-3.949,3.928
			c-8.92,0.001-17.841-0.014-26.761,0.01C17.11,41.299,15.802,40.609,15.169,38.492z M32.55,38.026
			c4.473,0,8.945-0.013,13.418,0.014c0.691,0.004,0.876-0.218,0.874-0.889c-0.02-7.42-0.021-14.84,0.001-22.26
			c0.002-0.701-0.175-0.938-0.91-0.936c-8.868,0.024-17.735,0.023-26.603,0.001c-0.726-0.002-0.919,0.221-0.917,0.931
			c0.023,7.394,0.024,14.788,0,22.182c-0.002,0.735,0.189,0.979,0.952,0.973C23.76,38.009,28.155,38.026,32.55,38.026z"/>
		<path fill="#9D9D9D" d="M35.828,27.628c-2.094,0-4.189,0.002-6.283-0.001c-1.038-0.002-1.201-0.172-1.207-1.22
			c-0.011-2.039-0.011-2.039,2.018-2.039c3.956,0,7.912-0.001,11.869,0.001c1.088,0.001,1.255,0.171,1.269,1.259
			c0.024,2,0.024,2-2.002,2C39.603,27.628,37.716,27.628,35.828,27.628z"/>
		<path fill="#9D9D9D" d="M35.967,17.849c2.118,0,4.236-0.002,6.354,0.001c0.961,0.001,1.149,0.183,1.172,1.106
			c0.053,2.135,0.053,2.135-2.11,2.135c-3.874,0-7.749,0.001-11.623-0.001c-1.262-0.001-1.421-0.162-1.422-1.42
			c-0.002-1.821-0.002-1.821,1.818-1.822C32.093,17.849,34.03,17.849,35.967,17.849z"/>
		<path fill="#9D9D9D" d="M35.882,34.148c-2.144,0-4.288,0.003-6.431-0.001c-0.967-0.002-1.123-0.148-1.108-1.131
			c0.028-1.772-0.502-2.142,2.123-2.119c3.848,0.034,7.697,0.008,11.545,0.009c1.346,0,1.479,0.132,1.482,1.445
			c0,0.207,0.002,0.413-0.001,0.62c-0.015,0.995-0.191,1.174-1.18,1.175C40.169,34.15,38.025,34.148,35.882,34.148z"/>
		<path fill="#9D9D9D" d="M21.516,19.466c-0.001-1.412,0.959-2.393,2.351-2.402c1.379-0.009,2.487,1.071,2.476,2.412
			c-0.011,1.279-1.164,2.416-2.445,2.409C22.561,21.879,21.517,20.818,21.516,19.466z"/>
		<path fill="#9D9D9D" d="M23.894,34.933c-1.399-0.002-2.373-0.974-2.377-2.375c-0.005-1.391,1.074-2.476,2.432-2.446
			c1.288,0.029,2.422,1.194,2.394,2.46C26.314,33.893,25.233,34.935,23.894,34.933z"/>
		<path fill="#9D9D9D" d="M21.516,26.03c-0.007-1.432,0.984-2.441,2.396-2.438c1.299,0.002,2.406,1.084,2.43,2.376
			c0.025,1.305-1.114,2.441-2.444,2.438C22.519,28.403,21.523,27.41,21.516,26.03z"/>
	</g>
	<g>
		<path fill="#E3A037" d="M46.516,6.768c0,0,3.195-0.574,5.94,0.451c0,0,2.294,1.434,3.318,0.655c0,0-1.147,1.393-4.22,1.065
			s-3.769-1.352-5.039-2.007"/>
		<path fill="#EF524F" d="M61.618,2.39c0,0-1.149,3.036-3.438,4.865c0,0-2.409,1.232-2.267,2.51c0,0-0.606-1.7,1.254-4.167
			c1.86-2.468,3.096-2.539,4.311-3.292"/>
		<path fill="#7A89AF" d="M58.131,17.453c0,0-2.267-2.324-2.958-5.171c0,0-0.099-2.704-1.318-3.115c0,0,1.796,0.169,3.248,2.897
			s0.994,3.879,1.163,5.298"/>
	</g>
</g>
</svg>
