<?xml version="1.0" encoding="utf-8"?>
<!-- Generator: Adobe Illustrator 17.0.0, SVG Export Plug-In . SVG Version: 6.00 Build 0)  -->
<!DOCTYPE svg PUBLIC "-//W3C//DTD SVG 1.1//EN" "http://www.w3.org/Graphics/SVG/1.1/DTD/svg11.dtd">
<svg version="1.1" id="Layer_1" xmlns="http://www.w3.org/2000/svg" xmlns:xlink="http://www.w3.org/1999/xlink" x="0px" y="0px"
	 width="65px" height="65px" viewBox="0 0 65 65" enable-background="new 0 0 65 65" xml:space="preserve">
<g>
	<g>
		<g>
			<path fill="#FFFFFF" d="M64,60c0,2.209-1.791,4-4,4H4c-2.209,0-4-1.791-4-4V4c0-2.209,1.791-4,4-4h56c2.209,0,4,1.791,4,4V60z"/>
			<path fill="none" stroke="#CCCCCC" stroke-miterlimit="10" d="M64.5,60.5c0,2.209-1.791,4-4,4h-56c-2.209,0-4-1.791-4-4v-56
				c0-2.209,1.791-4,4-4h56c2.209,0,4,1.791,4,4V60.5z"/>
		</g>
		<text transform="matrix(1 0 0 1 2.9775 56.1485)" font-family="'MyriadPro-Regular'" font-size="11">Organisation</text>
	</g>
</g>
<path fill="#9E9E9E" d="M24.736,34.769c0-0.7,0-1.208,0-1.805c-3.918,0-7.779,0-11.724,0c0,0.556,0,1.097,0,1.63
	c0.091,0.054,0.164,0.134,0.235,0.133c1.399-0.011,2.877,0.062,3.416,1.594c0.63,1.789,0.786,3.727-0.237,5.425
	c-0.357,0.592-1.32,1.057-2.054,1.136c-1.597,0.17-3.226,0.108-4.838,0.042c-1.822-0.074-2.659-1.262-2.663-3.606
	c-0.007-3.264,0.648-4.391,2.652-4.54c0.383-0.028,0.771-0.004,1.345-0.004c0-0.782-0.031-1.464,0.007-2.143
	c0.074-1.316,0.563-1.78,1.878-1.791c1.649-0.015,3.298-0.004,5.033-0.004c0-1.317,0-2.511,0-3.687
	c-0.116-0.063-0.188-0.133-0.263-0.138c-2.9-0.186-3.021-0.316-3.021-3.275c0-0.349-0.002-0.698,0-1.047
	c0.012-1.82,0.492-2.315,2.303-2.388c0.298-0.012,0.595-0.048,1.069-0.088c0-0.938-0.011-1.837,0.003-2.737
	c0.024-1.573,0.555-2.133,2.131-2.142c3.579-0.021,7.158-0.006,10.736-0.011c0.298,0,0.596-0.037,0.967-0.061
	c0-0.913,0-1.764,0-2.617c-0.063-0.051-0.124-0.138-0.191-0.144c-2.988-0.243-3.106-0.371-3.106-3.387
	c0-0.524-0.032-1.051,0.013-1.57c0.097-1.112,0.696-1.786,1.842-1.808c1.701-0.033,3.404-0.027,5.106-0.002
	c1.148,0.017,1.753,0.676,1.865,1.786c0.048,0.475,0.016,0.959,0.016,1.439c0.001,3.201-0.075,3.285-3.309,3.568
	c0,0.875,0,1.761,0,2.799c1.686,0,3.334,0,4.982,0c2.226,0,4.452-0.016,6.677,0.007c1.556,0.016,2.13,0.603,2.157,2.133
	c0.015,0.87,0.003,1.741,0.003,2.446c1.081,0.408,2.589,0.523,2.898,1.192c0.543,1.176,0.452,2.692,0.439,4.063
	c-0.013,1.385-0.646,1.698-3.232,1.864c0,1.187,0,2.387,0,3.805c1.454,0,2.959-0.001,4.465,0c2.036,0.002,2.387,0.358,2.413,2.449
	c0.005,0.431,0.001,0.863,0.001,1.223c0.174,0.121,0.245,0.213,0.315,0.213c1.4-0.004,3.055,0.074,3.371,1.607
	c0.353,1.711,0.179,3.584-0.09,5.337c-0.08,0.519-1.228,1.168-1.938,1.239c-1.771,0.176-3.571,0.066-5.359,0.039
	c-0.29-0.004-0.598-0.128-0.864-0.262c-1.479-0.746-2.051-3.018-1.449-5.687c0.33-1.463,1.303-2.166,3.086-2.23
	c0.254-0.009,0.508-0.028,0.839-0.046c0-0.599,0-1.139,0-1.761c-3.931,0-7.83,0-11.804,0c0,0.581,0,1.086,0,1.576
	c0.086,0.071,0.147,0.165,0.216,0.172c3.39,0.349,5.012,3.552,3.358,6.656c-0.544,1.021-1.448,1.491-2.573,1.513
	c-1.396,0.027-2.795,0.048-4.189-0.005c-1.697-0.063-2.742-1.101-2.899-2.781c-0.024-0.26-0.015-0.523-0.017-0.785
	c-0.027-3.69,0.328-4.12,4.021-4.691c0-0.614-0.022-1.257,0.004-1.899c0.06-1.464,0.463-1.863,1.903-1.875
	c1.61-0.013,3.219-0.003,4.95-0.003c0-1.27,0-2.461,0-3.685c-0.031-0.026-0.093-0.125-0.163-0.132
	c-3.031-0.291-3.031-0.29-3.031-3.395c0-0.393-0.008-0.786,0.003-1.178c0.044-1.573,0.542-2.067,2.145-2.144
	c0.34-0.016,0.678-0.055,1.085-0.089c0-0.954,0-1.843,0-2.806c-3.946,0-7.808,0-11.745,0c0,0.962,0,1.853,0,2.696
	c0.101,0.074,0.133,0.115,0.172,0.124c1.01,0.223,2.53-0.317,2.84,1.021c0.342,1.475,0.236,3.094,0.068,4.622
	c-0.046,0.417-0.993,1-1.563,1.045c-1.735,0.138-3.488,0.07-5.233,0.042c-1.097-0.018-1.657-0.68-1.777-1.722
	c-0.054-0.474-0.018-0.959-0.018-1.439c-0.001-3.256,0.002-3.259,3.27-3.591c0-0.874,0-1.764,0-2.764c-3.856,0-7.746,0-11.704,0
	c0,0.921,0,1.78,0,2.611c0.104,0.085,0.165,0.18,0.236,0.188c3.013,0.337,3.014,0.336,3.013,3.429c0,0.393,0.008,0.786-0.003,1.178
	c-0.045,1.565-0.566,2.076-2.159,2.121c-0.302,0.009-0.604,0.001-1.029,0.001c0,1.253,0,2.445,0,3.865c1.465,0,2.969-0.002,4.473,0
	c2.018,0.003,2.318,0.308,2.331,2.369c0.003,0.469,0,0.938,0,1.479c0.466,0.034,0.803,0.059,1.139,0.082
	c0.131,0.009,0.262,0.004,0.392,0.018c1.882,0.204,2.558,1.415,2.54,4.552c-0.013,2.24-0.863,3.489-2.589,3.577
	c-1.654,0.084-3.316,0.019-4.974,0.016c-0.13,0-0.263-0.013-0.39-0.041c-1.775-0.399-2.401-1.955-2.169-5.387
	c0.107-1.591,1.163-2.633,2.779-2.729C23.91,34.751,24.253,34.769,24.736,34.769z M53.741,40.905c3.276-0.06,3.05,0.621,2.961-3.103
	c-0.009-0.367-0.6-0.994-0.966-1.029c-1.335-0.126-2.696-0.126-4.032-0.004c-0.379,0.035-1.005,0.638-1.012,0.99
	c-0.072,3.615-0.383,3.117,2.788,3.145C53.567,40.906,53.654,40.905,53.741,40.905z M25.922,36.806
	c-0.611,0-1.223,0.022-1.832-0.005c-0.873-0.039-1.234,0.308-1.259,1.224c-0.077,2.88-0.108,2.88,2.742,2.88
	c0.393,0,0.785,0,1.178,0c2.121-0.001,2.121-0.001,2.12-2.071c0-2.027,0-2.027-2.033-2.029
	C26.533,36.804,26.228,36.804,25.922,36.806z M11.968,36.807c-0.61,0-1.221,0.026-1.829-0.006c-0.899-0.047-1.212,0.363-1.242,1.245
	c-0.098,2.86-0.124,2.859,2.76,2.859c0.392,0,0.784,0,1.176,0c2.101-0.002,2.101-0.002,2.1-2.091
	c-0.001-2.007-0.001-2.007-2.05-2.01C12.577,36.804,12.272,36.804,11.968,36.807z M39.735,40.822
	c3.141-0.024,3.045,0.503,3.016-2.857c0-0.043,0.017-0.105-0.006-0.127c-0.347-0.346-0.673-0.942-1.055-0.981
	c-1.246-0.126-2.512-0.04-3.77-0.052c-0.747-0.007-1.124,0.321-1.128,1.087c-0.018,3.264-0.168,2.944,2.683,2.929
	C39.562,40.822,39.648,40.822,39.735,40.822z"/>
<g>
	<path fill="#E3A037" d="M46.516,7.768c0,0,3.195-0.574,5.94,0.451c0,0,2.294,1.434,3.318,0.655c0,0-1.147,1.393-4.22,1.065
		s-3.769-1.352-5.039-2.007"/>
	<path fill="#EF524F" d="M61.618,3.39c0,0-1.149,3.036-3.438,4.865c0,0-2.409,1.232-2.267,2.51c0,0-0.606-1.7,1.254-4.167
		c1.86-2.468,3.096-2.539,4.311-3.292"/>
	<path fill="#7A89AF" d="M58.131,18.453c0,0-2.267-2.324-2.958-5.171c0,0-0.099-2.704-1.318-3.115c0,0,1.796,0.169,3.248,2.897
		s0.994,3.879,1.163,5.298"/>
</g>
</svg>
